<?xml version="1.0" standalone="no"?>
<!DOCTYPE svg PUBLIC "-//W3C//DTD SVG 20010904//EN"
 "http://www.w3.org/TR/2001/REC-SVG-20010904/DTD/svg10.dtd">
<svg version="1.0" xmlns="http://www.w3.org/2000/svg"
 width="2000.000000pt" height="2068.000000pt" viewBox="0 0 2000.000000 2068.000000"
 preserveAspectRatio="xMidYMid meet">
<metadata>
Created by potrace 1.15, written by Peter Selinger 2001-2017
</metadata>
<g transform="translate(0.000000,2068.000000) scale(0.100000,-0.100000)"
fill="#000000" stroke="none">
<path d="M11330 15509 c-2038 -1986 -3807 -3709 -3931 -3829 l-225 -219 -345
262 c-371 283 -734 559 -2986 2274 -805 612 -1466 1113 -1470 1113 -5 0 -239
-115 -520 -257 l-513 -258 -2 -3342 c-2 -1839 -3 -3754 -3 -4255 l0 -913 513
-258 514 -258 31 24 c147 110 4736 3603 4749 3614 18 16 -6 39 1388 -1317 179
-174 1092 -1060 2030 -1970 938 -909 1777 -1724 1865 -1810 158 -155 2517
-2442 2585 -2507 l36 -33 1809 723 1810 722 -4 7325 c-2 4029 -4 7326 -6 7328
-2 2 -3619 1453 -3619 1451 -1 0 -1668 -1625 -3706 -3610z m3108 -6833 l-3
-1664 -2214 1667 c-1217 917 -2213 1671 -2213 1675 0 5 996 753 2214 1663
l2213 1655 3 -1666 c1 -916 1 -2415 0 -3330z m-10438 2669 c591 -527 1083
-966 1093 -975 18 -16 -33 -63 -1092 -1023 l-1111 -1007 0 1997 c0 1900 1
1995 18 1981 9 -8 501 -446 1092 -973z"/>
</g>
</svg>
